<svg xmlns="http://www.w3.org/2000/svg" viewBox="0 0 240 240">
  <circle cx="120" cy="120" r="118" fill="#a89ce6"/>
  <g>
    <circle cx="182" cy="58" r="5.2" fill="#ef7a19"/><circle cx="196" cy="72" r="4.7" fill="#ef7a19"/>
    <circle cx="205" cy="90" r="4.3" fill="#ef7a19"/><circle cx="209" cy="112" r="4.2" fill="#ef7a19"/>
    <circle cx="205" cy="134" r="4.3" fill="#ef7a19"/><circle cx="196" cy="152" r="4.7" fill="#ef7a19"/>
    <circle cx="182" cy="166" r="5.2" fill="#ef7a19"/>
    <circle cx="164" cy="66" r="3.8" fill="#ef7a19"/><circle cx="176" cy="82" r="3.4" fill="#ef7a19"/>
    <circle cx="183" cy="100" r="3.2" fill="#ef7a19"/><circle cx="185" cy="122" r="3.2" fill="#ef7a19"/>
    <circle cx="180" cy="140" r="3.4" fill="#ef7a19"/><circle cx="169" cy="156" r="3.8" fill="#ef7a19"/>
  </g>
  <path d="M78,64 C58,74 46,96 50,122 C53,140 64,152 70,154 C65,130 64,104 76,78 C79,73 80,68 78,64 Z" fill="#d9b675" stroke="#1c2142" stroke-width="3"/>
  <path d="M62,118 C55,78 82,46 118,48 C136,49 148,58 155,72 C168,76 180,86 186,98 C190,106 187,113 179,114 C178,120 169,124 160,122 C152,129 140,129 132,122 L122,168 C117,186 94,193 74,188 C64,185 58,177 58,167 C53,150 56,133 62,118 Z" fill="#f3e4c4" stroke="#1c2142" stroke-width="3.2" stroke-linejoin="round"/>
  <path d="M70,150 C68,165 78,180 96,183 C108,185 118,178 122,166 L118,150 C108,158 88,158 70,150 Z" fill="#e6c98f" opacity=".55"/>
  <circle cx="140" cy="108" r="1.7" fill="#cfa86a"/><circle cx="146" cy="113" r="1.4" fill="#cfa86a"/><circle cx="136" cy="114" r="1.3" fill="#cfa86a"/>
  <path d="M126,86 C130,81 139,81 143,86 C139,92 130,92 126,86 Z" fill="#1c2142"/>
  <circle cx="133" cy="84.5" r="1.8" fill="#fff"/>
  <path d="M156,90 C168,85 182,88 189,96 C193,101 190,107 183,108 C180,114 169,115 161,110 C155,106 152,98 156,90 Z" fill="#1c2142"/>
  <circle cx="178" cy="94" r="1.6" fill="#fff" opacity=".85"/>
  <path d="M158,110 C163,117 166,123 162,129 C158,135 150,136 144,131" stroke="#1c2142" stroke-width="2.6" fill="none" stroke-linecap="round"/>
</svg>
